# Blender v2.79 (sub 0) OBJ File: ''
# www.blender.org
mtllib camera.mtl
o Cube_Cube.001
v -0.317232 -0.317232 0.317232
v -0.317232 0.317232 0.317232
v -0.188266 -0.188266 -0.317232
v -0.188266 0.188266 -0.317232
v 0.317232 -0.317232 0.317232
v 0.317232 0.317232 0.317232
v 0.188266 -0.188266 -0.317232
v 0.188266 0.188266 -0.317232
v -0.252749 -0.252749 0.000000
v -0.220507 -0.220507 -0.158616
v 0.000000 0.272679 0.305419
v -0.000000 0.223192 0.412436
v 0.192813 0.192813 0.305419
v 0.157820 0.157820 0.412436
v 0.272679 -0.000000 0.305419
v 0.223192 0.000000 0.412436
v 0.192813 -0.192813 0.305419
v 0.157820 -0.157820 0.412436
v -0.000000 -0.272679 0.305419
v -0.000000 -0.223192 0.412436
v -0.192813 -0.192813 0.305419
v -0.157820 -0.157820 0.412436
v -0.272679 -0.000000 0.305419
v -0.223192 0.000000 0.412436
v -0.192813 0.192813 0.305419
v -0.157820 0.157820 0.412436
v -0.284991 -0.284991 0.158616
v -0.284991 0.284991 0.158616
v -0.252749 0.252749 0.000000
v -0.220507 0.220507 -0.158616
v 0.284991 -0.284991 0.158616
v 0.252749 -0.252749 0.000000
v 0.220507 -0.220507 -0.158616
v 0.220507 0.220507 -0.158616
v 0.252749 0.252749 0.000000
v 0.284991 0.284991 0.158616
v 0.228283 -0.228283 0.067336
v -0.228283 0.228283 0.067336
v 0.228283 0.228283 0.067336
v -0.228283 -0.228283 0.067336
v -0.200909 0.200909 -0.067336
v 0.200909 0.200909 -0.067336
v -0.200909 -0.200909 -0.067336
v 0.200909 -0.200909 -0.067336
v -0.000000 0.088615 -0.405847
v -0.000000 0.147749 -0.304852
v 0.076743 0.044307 -0.405847
v 0.127955 0.073875 -0.304852
v 0.076743 -0.044307 -0.405847
v 0.127955 -0.073875 -0.304852
v -0.000000 -0.088615 -0.405847
v -0.000000 -0.147749 -0.304852
v -0.076743 -0.044307 -0.405847
v -0.127955 -0.073875 -0.304852
v -0.076743 0.044307 -0.405847
v -0.127955 0.073875 -0.304852
vn -0.7071 0.7071 0.0066
vn -0.5181 -0.5181 -0.6805
vn -0.7071 -0.7071 0.0066
vn -0.5181 0.5181 -0.6805
vn 0.5181 -0.5181 -0.6805
vn 0.6343 0.6343 -0.4420
vn 0.6229 -0.6229 0.4733
vn 0.6343 -0.6343 -0.4420
vn 0.6229 0.6229 0.4733
vn -0.6229 -0.6229 0.4733
vn -0.6343 -0.6343 -0.4420
vn -0.6343 0.6343 -0.4420
vn 0.5181 0.5181 -0.6805
vn 0.7071 -0.7071 0.0066
vn 0.0000 0.6207 0.7840
vn 0.6270 0.6270 -0.4623
vn 0.0000 0.8867 -0.4623
vn -0.6966 -0.6966 -0.1721
vn 0.4389 0.4389 0.7840
vn 0.8867 0.0000 -0.4623
vn -0.6609 -0.6609 -0.3556
vn 0.6609 -0.6609 -0.3556
vn -0.7000 -0.7000 -0.1416
vn 0.4389 -0.4389 0.7840
vn 0.6270 -0.6270 -0.4623
vn -0.6966 0.6966 -0.1721
vn 0.0000 -0.6207 0.7840
vn 0.0000 -0.8867 -0.4623
vn -0.6229 0.6229 0.4733
vn 0.6966 0.6966 -0.1721
vn -0.6270 -0.6270 -0.4623
vn 0.6966 -0.6966 -0.1721
vn -0.6609 0.6609 -0.3556
vn 0.7000 0.7000 -0.1416
vn 0.6609 0.6609 -0.3556
vn -0.6207 0.0000 0.7840
vn -0.8867 0.0000 -0.4623
vn 0.6207 0.0000 0.7840
vn 0.7071 0.7071 0.0066
vn -0.6270 0.6270 -0.4623
vn 0.7000 -0.7000 -0.1416
vn -0.4389 0.4389 0.7840
vn -0.7000 0.7000 -0.1416
vn 0.0000 0.9135 0.4067
vn 0.5210 0.3008 -0.7988
vn 0.0000 0.6016 -0.7988
vn 0.7912 0.4568 0.4067
vn 0.5210 -0.3008 -0.7988
vn 0.0000 -0.9135 0.4067
vn 0.0000 -0.6016 -0.7988
vn -0.5210 -0.3008 -0.7988
vn -0.7912 -0.4568 0.4067
vn 0.7912 -0.4568 0.4067
vn -0.5210 0.3008 -0.7988
vn -0.7912 0.4568 0.4067
vn -0.4389 -0.4389 0.7840
usemtl None
s 1
f 30//1 3//2 10//3
f 4//4 7//5 3//2
f 36//6 5//7 31//8
f 6//9 1//10 5//7
f 31//8 1//10 27//11
f 28//12 6//9 36//6
f 8//13 33//14 7//5
f 12//15 13//16 11//17
f 40//18 31//8 27//11
f 14//19 15//20 13//16
f 43//21 30//1 10//3
f 44//22 9//23 43//21
f 15//20 18//24 17//25
f 38//26 9//23 40//18
f 7//5 10//3 3//2
f 17//25 20//27 19//28
f 2//29 27//11 1//10
f 39//30 28//12 36//6
f 20//27 21//31 19//28
f 39//30 31//8 37//32
f 41//33 35//34 42//35
f 21//31 24//36 23//37
f 24//36 20//27 16//38
f 4//4 34//39 8//13
f 24//36 25//40 23//37
f 42//35 32//41 44//22
f 26//42 11//17 25//40
f 13//16 17//25 21//31
f 35//34 37//32 32//41
f 29//43 39//30 35//34
f 28//12 40//18 27//11
f 32//41 40//18 9//23
f 34//39 44//22 33//14
f 30//1 42//35 34//39
f 33//14 43//21 10//3
f 29//43 43//21 9//23
f 46//44 47//45 45//46
f 48//47 49//48 47//45
f 49//48 52//49 51//50
f 52//49 53//51 51//50
f 46//44 54//52 50//53
f 54//52 55//54 53//51
f 56//55 45//46 55//54
f 51//50 53//51 55//54
f 30//1 4//4 3//2
f 4//4 8//13 7//5
f 36//6 6//9 5//7
f 6//9 2//29 1//10
f 31//8 5//7 1//10
f 28//12 2//29 6//9
f 8//13 34//39 33//14
f 12//15 14//19 13//16
f 40//18 37//32 31//8
f 14//19 16//38 15//20
f 43//21 41//33 30//1
f 44//22 32//41 9//23
f 15//20 16//38 18//24
f 38//26 29//43 9//23
f 7//5 33//14 10//3
f 17//25 18//24 20//27
f 2//29 28//12 27//11
f 39//30 38//26 28//12
f 20//27 22//56 21//31
f 39//30 36//6 31//8
f 41//33 29//43 35//34
f 21//31 22//56 24//36
f 16//38 14//19 12//15
f 12//15 26//42 24//36
f 24//36 22//56 20//27
f 20//27 18//24 16//38
f 16//38 12//15 24//36
f 4//4 30//1 34//39
f 24//36 26//42 25//40
f 42//35 35//34 32//41
f 26//42 12//15 11//17
f 25//40 11//17 13//16
f 13//16 15//20 17//25
f 17//25 19//28 21//31
f 21//31 23//37 25//40
f 25//40 13//16 21//31
f 35//34 39//30 37//32
f 29//43 38//26 39//30
f 28//12 38//26 40//18
f 32//41 37//32 40//18
f 34//39 42//35 44//22
f 30//1 41//33 42//35
f 33//14 44//22 43//21
f 29//43 41//33 43//21
f 46//44 48//47 47//45
f 48//47 50//53 49//48
f 49//48 50//53 52//49
f 52//49 54//52 53//51
f 50//53 48//47 46//44
f 46//44 56//55 54//52
f 54//52 52//49 50//53
f 54//52 56//55 55//54
f 56//55 46//44 45//46
f 55//54 45//46 51//50
f 45//46 47//45 51//50
f 47//45 49//48 51//50
